<svg xmlns="http://www.w3.org/2000/svg" version="1.1" xmlns:xlink="http://www.w3.org/1999/xlink" viewBox="0 0 200 200"><rect width="200" height="200" fill="url('#gradient')"></rect><defs><linearGradient id="gradient" gradientTransform="rotate(45 0.5 0.5)"><stop offset="0%" stop-color="#004225"></stop><stop offset="100%" stop-color="#004225"></stop></linearGradient></defs><g><g fill="#ffffff" transform="matrix(2.4198503347774714,0,0,2.4198503347774714,7.402825736069886,117.90923568572337)" stroke="111111" stroke-width="0.2"><path d="M5.75 0L1.07 0L1.07-14.22L5.65-14.22Q7.54-14.22 9.04-13.36Q10.55-12.51 11.39-10.95Q12.24-9.39 12.25-7.46L12.25-7.46L12.25-6.81Q12.25-4.85 11.42-3.31Q10.60-1.76 9.10-0.88Q7.60-0.01 5.75 0L5.75 0ZM5.65-11.57L4.50-11.57L4.50-2.64L5.69-2.64Q7.17-2.64 7.96-3.69Q8.75-4.74 8.75-6.81L8.75-6.81L8.75-7.42Q8.75-9.48 7.96-10.53Q7.17-11.57 5.65-11.57L5.65-11.57ZM17.32-10.57L17.32 0L14.02 0L14.02-10.57L17.32-10.57ZM13.83-13.29L13.83-13.29Q13.83-13.99 14.34-14.44Q14.84-14.89 15.65-14.89Q16.46-14.89 16.97-14.44Q17.48-13.99 17.48-13.29Q17.48-12.59 16.97-12.14Q16.46-11.69 15.65-11.69Q14.84-11.69 14.34-12.14Q13.83-12.59 13.83-13.29ZM19.38-10.57L22.46-10.57L22.57-9.33Q23.69-10.76 25.59-10.76L25.59-10.76Q27.59-10.76 28.29-9.17L28.29-9.17Q29.37-10.76 31.40-10.76L31.40-10.76Q34.61-10.76 34.70-6.88L34.70-6.88L34.70 0L31.40 0L31.40-6.67Q31.40-7.48 31.12-7.85Q30.85-8.22 30.13-8.22L30.13-8.22Q29.15-8.22 28.67-7.35L28.67-7.35L28.68-7.22L28.68 0L25.38 0L25.38-6.65Q25.38-7.48 25.12-7.85Q24.85-8.22 24.11-8.22L24.11-8.22Q23.16-8.22 22.67-7.35L22.67-7.35L22.67 0L19.38 0L19.38-10.57ZM46.39-5.36L46.39-5.20Q46.39-2.60 45.31-1.20Q44.24 0.20 42.29 0.20L42.29 0.20Q40.67 0.20 39.69-1.08L39.69-1.08L39.55 0L36.60 0L36.60-15L39.89-15L39.89-9.72Q40.81-10.76 42.27-10.76L42.27-10.76Q44.24-10.76 45.31-9.35Q46.39-7.93 46.39-5.36L46.39-5.36ZM43.09-5.40L43.09-5.40Q43.09-6.92 42.68-7.57Q42.28-8.22 41.44-8.22L41.44-8.22Q40.32-8.22 39.89-7.37L39.89-7.37L39.89-3.17Q40.31-2.33 41.46-2.33L41.46-2.33Q42.62-2.33 42.93-3.47L42.93-3.47Q43.09-4.02 43.09-5.40ZM54.29-10.64L54.23-7.59L53.14-7.67Q51.59-7.67 51.15-6.69L51.15-6.69L51.15 0L47.86 0L47.86-10.57L50.95-10.57L51.05-9.21Q51.88-10.76 53.37-10.76L53.37-10.76Q53.90-10.76 54.29-10.64L54.29-10.64ZM54.66-4.82L54.65-5.38Q54.65-6.96 55.26-8.20Q55.88-9.43 57.03-10.10Q58.18-10.76 59.74-10.76L59.74-10.76Q62.11-10.76 63.48-9.29Q64.84-7.82 64.84-5.29L64.84-5.29L64.84-5.18Q64.84-2.71 63.47-1.25Q62.10 0.20 59.76 0.20L59.76 0.20Q57.50 0.20 56.13-1.16Q54.77-2.51 54.66-4.82L54.66-4.82ZM57.95-5.77L57.94-5.18Q57.94-3.71 58.40-3.03Q58.86-2.34 59.76-2.34L59.76-2.34Q61.51-2.34 61.55-5.05L61.55-5.05L61.55-5.38Q61.55-8.22 59.74-8.22L59.74-8.22Q58.09-8.22 57.95-5.77L57.95-5.77ZM68.89-10.57L70.37-7.66L71.90-10.57L75.32-10.57L72.54-5.42L75.46 0L72.02 0L70.36-3.13L68.73 0L65.27 0L68.20-5.42L65.43-10.57L68.89-10.57Z"></path></g></g></svg>